# xmcd
#
# Track frame offsets: 
#        182
#        14475
#        31277
#
# Disc length: 681 seconds
#
# Revision: 4
# Processed by: cddbd v1.5.2PL0 Copyright (c) Steve Scherf et al.
# Submitted via: ExactAudioCopy v0.99pb4
#
DISCID=1b02a703
DTITLE=For Love Not Lisa - Had A Lover - 3 Songs About U (Promo Single
DTITLE=)
DYEAR=1995
DGENRE=Alternative
TTITLE0=Had A Lover (LP Version)
TTITLE1=Good Intentions (LP Version)
TTITLE2=Some Big Heavy (Unavailable On LP)
EXTD=YEAR: 1995 ID3G: 40
EXTT0=
EXTT1=
EXTT2=
PLAYORDER=
